# xmcd
#
# Track frame offsets:
#	210
#	13087
#	25545
#	41116
#	55284
#	69764
#	82348
#	98001
#	111720
#	124555
#	137554
#	151924
#	164586
#	177900
#	190668
#	204401
#	217520
#	230963
#	244485
#	258078
#	272211
#
# Disc length: 3802 seconds
#
# Revision: 1
# Processed by: cddbd v1.5.1PL0 Copyright (c) Steve Scherf et al.
# Submitted via: audiograbber 1.83.01
#
DISCID=270ed815
DTITLE=Grayson and Whitter - Robinette and More - Grayson and Whitter Vol. 2
DYEAR=1900
DGENRE=
TTITLE0=Grayson and Whitter - The Nine-Pound Hamer
TTITLE1=Grayson and Whitter - Short Life Of Trouble
TTITLE2=Grayson and Whitter - I've Always Been A Rambler
TTITLE3=Grayson and Whitter - Where Are You Going Alice
TTITLE4=Grayson and Whitter - A Dark Road Is A Hard Road To Travel
TTITLE5=Grayson and Whitter - Barnyard Serenade
TTITLE6=Grayson and Whitter - Little Maggie With A Dram Glass In Her Hand
TTITLE7=Grayson and Whitter - On The Banks Of Old Tennessee
TTITLE8=Grayson and Whitter - Never Be As Fast As I Have Been
TTITLE9=Grayson and Whitter - I Have Lose You Darling, True Love
TTITLE10=Grayson and Whitter - Tom Dooley
TTITLE11=Grayson and Whitter - Going Down The Lee Highway
TTITLE12=Grayson and Whitter - I Saw A Man At The Close Of Day
TTITLE13=Grayson and Whitter - What You Gonna Do With The Baby
TTITLE14=Robinette and Moore - Birmingham Jail
TTITLE15=Robinette and Moore - Good Bye Sweetheart
TTITLE16=Robinette and Moore - When The nowflakes Fall Again
TTITLE17=Robinette and Moore - Mama Don't Allow No Low Down Hangin' Around
TTITLE18=Robinette and Moore - Flop Eared Mule
TTITLE19=Robinette and Moore - That Old Tiger Rag
TTITLE20=Robinette and Moore - Last Days In Georgia
EXTD=
EXTT0=
EXTT1=
EXTT2=
EXTT3=
EXTT4=
EXTT5=
EXTT6=
EXTT7=
EXTT8=
EXTT9=
EXTT10=
EXTT11=
EXTT12=
EXTT13=
EXTT14=
EXTT15=
EXTT16=
EXTT17=
EXTT18=
EXTT19=
EXTT20=
PLAYORDER=
